<svg xmlns="http://www.w3.org/2000/svg" viewBox="0 0 200 200" width="64" height="64">
  <defs>
    <path id="s" d="M100,88 C94,74 78,66 60,70 C38,75 22,94 8,110 C3,116 6,124 13,121 C28,114 44,120 60,116 C76,112 90,104 100,96 C110,104 124,112 140,116 C156,120 172,114 187,121 C194,124 197,116 192,110 C178,94 162,75 140,70 C122,66 106,74 100,88 Z"/>
    <clipPath id="l"><rect x="0" y="0" width="100" height="200"/></clipPath>
    <clipPath id="r"><rect x="100" y="0" width="100" height="200"/></clipPath>
  </defs>
  <use href="#s" clip-path="url(#l)" fill="#c0271c"/>
  <use href="#s" clip-path="url(#r)" fill="#fffdf8"/>
  <use href="#s" fill="none" stroke="#15120f" stroke-width="5" stroke-linejoin="round"/>
</svg>
